<svg xmlns="http://www.w3.org/2000/svg" width="200" height="200" viewBox="0 0 200 200">
  <!-- Background Circle -->
  <circle cx="100" cy="100" r="90" fill="url(#gradient-bg)" />
  
  <!-- Target/Bullseye -->
  <circle cx="100" cy="100" r="70" fill="#ffffff" stroke="#1f77b4" stroke-width="2" />
  <circle cx="100" cy="100" r="50" fill="#e6f3ff" stroke="#1f77b4" stroke-width="2" />
  <circle cx="100" cy="100" r="30" fill="#1f77b4" stroke="#1f77b4" stroke-width="2" />
  <circle cx="100" cy="100" r="10" fill="#ff7f0e" stroke="#ff7f0e" stroke-width="2" />
  
  <!-- Arrow -->
  <path d="M 170 100 L 110 100" stroke="#ff7f0e" stroke-width="4" fill="none" />
  <path d="M 110 100 L 120 90 L 120 110 Z" fill="#ff7f0e" />
  
  <!-- AI Icon -->
  <g transform="translate(70, 70) scale(0.6)">
    <path d="M 20 0 L 40 0 L 50 80 L 30 80 L 28 65 L 12 65 L 10 80 L -10 80 L 0 0 L 20 0 Z M 25 20 L 15 20 L 13 45 L 27 45 L 25 20 Z" fill="#1f77b4" />
    <path d="M 60 0 L 80 0 L 80 80 L 60 80 L 60 0 Z" fill="#1f77b4" />
  </g>
  
  <!-- Gradient Definitions -->
  <defs>
    <linearGradient id="gradient-bg" x1="0%" y1="0%" x2="100%" y2="100%">
      <stop offset="0%" stop-color="#1f77b4" />
      <stop offset="100%" stop-color="#ff7f0e" />
    </linearGradient>
  </defs>
</svg>